<svg width="180" height="180" viewBox="0 0 180 180" fill="none" xmlns="http://www.w3.org/2000/svg">
<g clip-path="url(#clip0_285_4058)">
<g filter="url(#filter0_f_285_4058)">
<path d="M145.41 7.81259L79.6599 95.4066L55.0039 70.7506L25.7539 100.001L80.3159 154.563L174.191 29.4026L145.41 7.80859V7.81259Z" fill="#686868" fill-opacity="0.1"/>
</g>
<path d="M160 100C160 144.183 124.183 180 80 180C35.817 180 0 144.183 0 100C0 55.817 35.817 20 80 20C124.183 20 160 55.817 160 100Z" fill="url(#paint0_radial_285_4058)"/>
<g filter="url(#filter1_f_285_4058)">
<path d="M147.999 8L82.4685 95.406L57.9995 70.937L25.9375 102.999L83.5315 160.624L180.001 32.004L148.001 8.004L147.999 8Z" fill="#686868" fill-opacity="0.1"/>
</g>
<path d="M55 75L30 100L80 150L170 30L146 12L80 100L55 75Z" fill="url(#paint1_linear_285_4058)"/>
</g>
<defs>
<filter id="filter0_f_285_4058" x="21.7539" y="3.80859" width="156.438" height="154.754" filterUnits="userSpaceOnUse" color-interpolation-filters="sRGB">
<feFlood flood-opacity="0" result="BackgroundImageFix"/>
<feBlend mode="normal" in="SourceGraphic" in2="BackgroundImageFix" result="shape"/>
<feGaussianBlur stdDeviation="2" result="effect1_foregroundBlur_285_4058"/>
</filter>
<filter id="filter1_f_285_4058" x="20.3375" y="2.4" width="165.262" height="163.824" filterUnits="userSpaceOnUse" color-interpolation-filters="sRGB">
<feFlood flood-opacity="0" result="BackgroundImageFix"/>
<feBlend mode="normal" in="SourceGraphic" in2="BackgroundImageFix" result="shape"/>
<feGaussianBlur stdDeviation="2.8" result="effect1_foregroundBlur_285_4058"/>
</filter>
<radialGradient id="paint0_radial_285_4058" cx="0" cy="0" r="1" gradientUnits="userSpaceOnUse" gradientTransform="translate(86 106) scale(84)">
<stop stop-color="#3294D1"/>
<stop offset="0.8" stop-color="#3492CD"/>
<stop offset="1" stop-color="#2A6A92"/>
</radialGradient>
<linearGradient id="paint1_linear_285_4058" x1="55" y1="75" x2="105" y2="125" gradientUnits="userSpaceOnUse">
<stop stop-color="white"/>
<stop offset="0.7" stop-color="white"/>
<stop offset="1" stop-color="#CCCCCC"/>
</linearGradient>
<clipPath id="clip0_285_4058">
<rect width="180" height="180" fill="white"/>
</clipPath>
</defs>
</svg>
